<?xml version="1.0" encoding="UTF-8" standalone="no"?>
<!-- Created with Inkscape (http://www.inkscape.org/) -->

<svg
   xmlns:dc="http://purl.org/dc/elements/1.1/"
   xmlns:cc="http://creativecommons.org/ns#"
   xmlns:rdf="http://www.w3.org/1999/02/22-rdf-syntax-ns#"
   xmlns:svg="http://www.w3.org/2000/svg"
   xmlns="http://www.w3.org/2000/svg"
   xmlns:sodipodi="http://sodipodi.sourceforge.net/DTD/sodipodi-0.dtd"
   xmlns:inkscape="http://www.inkscape.org/namespaces/inkscape"
   width="99.787933"
   height="114.52559"
   id="svg3026"
   version="1.1"
   inkscape:version="0.48.2 r9819"
   sodipodi:docname="imglib2-qr.svg">
  <defs
     id="defs3028" />
  <sodipodi:namedview
     id="base"
     pagecolor="#000000"
     bordercolor="#666666"
     borderopacity="1.0"
     inkscape:pageopacity="1"
     inkscape:pageshadow="2"
     inkscape:zoom="2"
     inkscape:cx="-9.6312019"
     inkscape:cy="93.448621"
     inkscape:document-units="px"
     inkscape:current-layer="layer1"
     showgrid="false"
     fit-margin-top="0"
     fit-margin-left="0"
     fit-margin-right="0"
     fit-margin-bottom="0"
     inkscape:window-width="1366"
     inkscape:window-height="744"
     inkscape:window-x="0"
     inkscape:window-y="24"
     inkscape:window-maximized="1"
     inkscape:snap-bbox="true"
     inkscape:object-paths="true"
     inkscape:object-nodes="true"
     inkscape:snap-page="true" />
  <metadata
     id="metadata3031">
    <rdf:RDF>
      <cc:Work
         rdf:about="">
        <dc:format>image/svg+xml</dc:format>
        <dc:type
           rdf:resource="http://purl.org/dc/dcmitype/StillImage" />
        <dc:title></dc:title>
      </cc:Work>
    </rdf:RDF>
  </metadata>
  <g
     inkscape:label="Layer 1"
     inkscape:groupmode="layer"
     id="layer1"
     transform="translate(-325.10603,-473.09939)">
    <g
       id="g3811"
       transform="matrix(0.75879376,0,0,0.75879376,90.452323,126.14923)">
      <rect
         y="457.23907"
         x="309.2457"
         height="131.50856"
         width="131.50864"
         id="rect3809"
         style="fill:#ffffff;fill-opacity:1;stroke:none" />
      <path
         inkscape:connector-curvature="0"
         id="path3063"
         d="m 325.10603,559.00951 0,-13.87779 13.87779,0 13.87779,0 0,13.87779 0,13.87779 -13.87779,0 -13.87779,0 0,-13.87779 z m 23.7905,0 0,-9.91271 -9.91272,0 -9.9127,0 0,9.91271 0,9.91271 9.9127,0 9.91272,0 0,-9.91271 z m -15.86033,0 0,-5.94763 5.94762,0 5.94763,0 0,5.94763 0,5.94762 -5.94763,0 -5.94762,0 0,-5.94762 z m 23.79049,9.91271 0,-3.96509 1.98254,0 1.98254,0 0,-1.98254 0,-1.98254 -1.98254,0 -1.98254,0 0,-3.96508 0,-3.96508 3.96508,0 3.96508,0 0,1.98254 0,1.98254 1.98255,0 1.98254,0 0,-3.96508 0,-3.96509 -1.98254,0 -1.98255,0 0,-1.98253 0,-1.98255 -3.96508,0 -3.96508,0 0,-1.98254 0,-1.98254 -5.94762,0 -5.94762,0 0,-3.96508 0,-3.96509 1.98254,0 1.98254,0 0,-1.98254 0,-1.98254 -1.98254,0 -1.98254,0 0,-1.98254 0,-1.98255 -1.98254,0 -1.98254,0 0,3.96508 0,3.96508 -1.98255,0 -1.98253,0 0,3.96509 0,3.96508 -3.96509,0 -3.96508,0 0,-3.96508 0,-3.96509 3.96508,0 3.96509,0 0,-3.96508 0,-3.96508 1.98253,0 1.98255,0 0,-2.31296 0,-2.31297 7.93016,0 7.93017,0 0,-1.98254 0,-1.98254 -3.96508,0 -3.96509,0 0,-1.98254 0,-1.98254 -1.98254,0 -1.98254,0 0,1.98254 0,1.98254 -1.98254,0 -1.98254,0 0,-1.98254 0,-1.98254 -1.98255,0 -1.98253,0 0,1.98254 0,1.98254 -3.96509,0 -3.96508,0 0,4.29551 0,4.29551 -1.98254,0 -1.98254,0 0,-6.27805 0,-6.27804 1.98254,0 1.98254,0 0,-1.98254 0,-1.98254 -1.98254,0 -1.98254,0 0,-1.98254 0,-1.98254 3.96508,0 3.96508,0 0,1.98254 0,1.98254 1.98255,0 1.98254,0 0,-1.98254 0,-1.98254 3.96508,0 3.96508,0 0,1.98254 0,1.98254 1.98254,0 1.98254,0 0,-1.98254 0,-1.98254 1.98254,0 1.98255,0 0,1.98254 0,1.98254 -1.98255,0 -1.98254,0 0,1.98254 0,1.98254 3.96509,0 3.96508,0 0,-1.98254 0,-1.98254 1.98254,0 1.98254,0 0,-1.98254 0,-1.98254 -1.98254,0 -1.98254,0 0,-3.96508 0,-3.96508 1.98254,0 1.98254,0 0,-1.98255 0,-1.98254 1.98255,0 1.98254,0 0,-3.96508 0,-3.96508 -1.98254,0 -1.98255,0 0,-1.98254 0,-1.98253 1.98255,0 1.98254,0 0,1.98253 0,1.98254 1.98255,0 1.98254,0 0,-3.96508 0,-3.96509 -5.94762,0 -5.94762,0 0,-1.98254 0,-1.98254 7.93016,0 7.93017,0 0,1.98254 0,1.98254 2.31296,0 2.31297,0 0,-1.98254 0,-1.98254 1.98253,0 1.98255,0 0,5.94762 0,5.94762 1.98254,0 1.98254,0 0,-1.98254 0,-1.98253 1.98254,0 1.98254,0 0,-1.98255 0,-1.98254 1.98254,0 1.98254,0 0,1.98254 0,1.98255 -1.98254,0 -1.98254,0 0,1.98253 0,1.98254 1.98254,0 1.98254,0 0,11.89525 0,11.89524 -1.98254,0 -1.98254,0 0,5.94762 0,5.94762 1.98254,0 1.98254,0 0,2.31296 0,2.31297 -1.98254,0 -1.98254,0 0,1.98254 0,1.98255 3.96508,0 3.96508,0 0,1.98254 0,1.98254 1.98255,0 1.98253,0 0,1.98255 0,1.98255 3.96509,0 3.96508,0 0,3.96508 0,3.96508 1.98253,0 1.98255,0 0,1.98255 0,1.98253 -1.98255,0 -1.98253,0 0,1.98255 0,1.98254 1.98253,0 1.98255,0 0,3.96508 0,3.96508 1.98254,0 1.98253,0 0,-1.98254 0,-1.98254 1.98255,0 1.98254,0 0,-1.98254 0,-1.98254 1.98254,0 1.98253,-1e-5 0,9.9127 0,9.91271 -1.98254,0 -1.98254,0 0,-1.98254 0,-1.98254 -3.96509,0 -3.96508,0 0,1.98254 0,1.98254 -1.98254,0 -1.98254,0 0,-1.98254 0,-1.98254 -3.96508,0 -3.96509,0 0,1.98254 0,1.98254 -1.98253,0 -1.98255,0 0,-1.98254 0,-1.98254 -1.98253,0 -1.98254,0 0,1.98254 0,1.98254 -1.98254,0 -1.98254,0 0,-1.98254 0,-1.98254 1.98254,0 1.98254,0 0,-5.94763 0,-5.94762 -3.96508,0 -3.96509,0 0,-1.98254 0,-1.98254 1.98254,0 1.98254,0 0,-3.96509 0,-3.96508 -1.98254,0 -1.98254,0 0,1.98255 0,1.98253 -1.98254,0 -1.98254,0 0,11.89525 0,11.89525 -8.26059,0 -8.26059,0 0,-3.96508 0,-3.96509 -1.98255,0 -1.98255,0 0,3.96509 0,3.96508 -1.98254,0 -1.98254,0 0,-3.96508 z m 44.27675,-3.96509 0,-3.96508 3.96509,0 3.96508,0 0,3.96508 0,3.96509 1.98254,0 1.98254,0 0,-3.96509 0,-3.96508 -1.98254,0 -1.98254,0 0,-1.98253 0,-1.98255 -3.96508,0 -3.96509,0 0,1.98255 0,1.98253 -1.98253,0 -1.98255,0 0,3.96508 0,3.96509 1.98255,0 1.98253,0 0,-3.96509 z m -32.3815,-1.98254 0,-1.98254 1.98254,0 1.98255,0 0,1.98254 0,1.98254 2.31296,0 2.31297,0 0,-1.98254 0,-1.98254 -2.31297,0 -2.31296,0 0,-1.98253 0,-1.98255 2.31296,0 2.31297,0 0,-3.96508 0,-3.96509 -2.31297,0 -2.31296,0 0,-1.98253 0,-1.98255 6.27805,0 6.27804,0 0,-3.96508 0,-3.96508 -3.96508,0 -3.96508,0 0,1.98254 0,1.98254 -2.31297,0 -2.31296,0 0,1.98254 0,1.98254 -1.98255,0 -1.98254,0 0,-1.98254 0,-1.98254 -1.98254,0 -1.98255,0 0,1.98254 0,1.98254 1.98255,0 1.98254,0 0,1.98255 0,1.98253 1.98254,0 1.98255,0 0,3.96509 0,3.96508 -1.98255,0 -1.98254,0 0,1.98255 0,1.98253 -1.98254,0 -1.98255,0 0,1.98254 0,1.98254 1.98255,0 1.98254,0 0,-1.98254 z m 36.34659,-15.86033 0,-5.94762 -5.94762,0 -5.94762,0 0,5.94762 0,5.94762 5.94762,0 5.94762,0 0,-5.94762 z m -7.93017,0 0,-1.98254 1.98255,0 1.98253,0 0,1.98254 0,1.98254 -1.98253,0 -1.98255,0 0,-1.98254 z m -36.34659,-7.93016 0,-1.98255 5.94763,0 5.94762,0 0,-1.98254 0,-1.98255 4.29551,0 4.29551,0 0,-1.98255 0,-1.98253 1.98254,0 1.98254,0 0,-1.98255 0,-1.98255 1.98254,0 1.98254,0 0,-2.31296 0,-2.31296 -1.98254,0 -1.98254,0 0,2.31296 0,2.31296 -3.96508,0 -3.96508,0 0,-2.31296 0,-2.31296 1.98253,0 1.98255,0 0,-5.94762 0,-5.94762 -4.29551,0 -4.29551,0 0,-5.94762 0,-5.94762 2.31296,0 2.31297,0 0,3.96508 0,3.96509 1.98253,0 1.98255,0 0,-3.96509 0,-3.96508 -1.98255,0 -1.98253,0 0,-1.98255 0,-1.98253 -2.31297,0 -2.31296,0 0,1.98253 0,1.98255 -1.98255,0 -1.98254,0 0,-1.98255 0,-1.98253 -1.98254,0 -1.98255,0 0,1.98253 0,1.98255 -1.98254,0 -1.98255,0 0,1.98254 0,1.98254 1.98255,0 1.98254,0 0,3.96509 0,3.96508 -1.98254,0 -1.98255,0 0,1.98253 0,1.98254 1.98255,0 1.98254,0 0,1.98255 0,1.98253 -1.98254,0 -1.98255,0 0,1.98255 0,1.98254 3.96508,0 3.96509,0 0,6.27804 0,6.27805 -3.96509,0 -3.96508,0 0,-1.98255 0,-1.98253 1.98255,0 1.98254,0 0,-1.98255 0,-1.98255 -3.96508,0 -3.96508,0 0,3.96509 0,3.96508 1.98254,0 1.98254,0 0,1.98255 0,1.98254 -1.98254,0 -1.98254,0 0,1.98255 0,1.98253 1.98254,0 1.98254,0 0,-1.98253 z m 11.89525,-11.89525 0,-1.98255 2.31296,0 2.31297,0 0,1.98255 0,1.98255 -2.31297,0 -2.31296,0 0,-1.98255 z m 0,-12.55609 0,-1.98255 2.31296,0 2.31297,0 0,1.98255 0,1.98253 -2.31297,0 -2.31296,0 0,-1.98253 z m -7.93017,-3.96509 0,-1.98253 1.98255,0 1.98254,0 0,1.98253 0,1.98254 -1.98254,0 -1.98255,0 0,-1.98254 z m 0,-11.89524 0,-1.98254 1.98255,0 1.98254,0 0,1.98254 0,1.98254 -1.98254,0 -1.98255,0 0,-1.98254 z m -11.89524,36.34659 0,-1.98255 -1.98255,0 -1.98253,0 0,1.98255 0,1.98254 1.98253,0 1.98255,0 0,-1.98254 z m 44.27675,0 0,-1.98255 -1.98253,0 -1.98254,0 0,1.98255 0,1.98254 1.98254,0 1.98253,0 0,-1.98254 z m -44.27675,-7.93017 0,-1.98254 -1.98255,0 -1.98253,0 0,1.98254 0,1.98255 1.98253,0 1.98255,0 0,-1.98255 z m 36.34659,-20.48626 0,-1.98254 -1.98254,0 -1.98253,0 0,1.98254 0,1.98255 1.98253,0 1.98254,0 0,-1.98255 z m 0,-13.87779 0,-7.93016 -1.98254,0 -1.98253,0 0,7.93016 0,7.93017 1.98253,0 1.98254,0 0,-7.93017 z m -7.93017,-5.94762 0,-1.98254 -1.98254,0 -1.98254,0 0,-1.98254 0,-1.98253 -2.31296,0 -2.31297,0 0,3.96508 0,3.96508 4.29551,0 4.29551,0 0,-1.98254 z m 3.96509,75.99742 0,-1.98254 1.98253,0 1.98254,0 0,1.98254 0,1.98254 -1.98254,0 -1.98253,0 0,-1.98254 z m 35.68574,-15.86033 0,-1.98255 -1.98254,0 -1.98255,0 0,-1.98254 0,-1.98254 -1.98253,0 -1.98254,0 0,-3.96508 0,-3.96509 -1.98254,0 -1.98254,0 0,-1.98254 0,-1.98254 -1.98255,0 -1.98253,0 0,-1.98254 0,-1.98255 -3.96509,0 -3.96508,0 0,-2.31296 0,-2.31297 1.98255,0 1.98253,0 0,-1.98254 0,-1.98254 -1.98253,0 -1.98255,0 0,-1.98254 0,-1.98254 1.98255,0 1.98253,0 0,-1.98254 0,-1.98254 -1.98253,0 -1.98255,0 0,-1.98254 0,-1.98254 1.98255,0 1.98253,0 0,1.98254 0,1.98254 9.91272,0 9.91271,0 0,-1.98254 0,-1.98254 1.98254,0 1.98254,0 0,1.98254 0,1.98254 -1.98254,0 -1.98254,0 0,1.98254 0,1.98254 1.98254,0 1.98254,0 0,6.27804 0,6.27805 -1.98254,0 -1.98254,0 0,1.98255 0,1.98254 1.98254,0 1.98254,0 0,3.96508 0,3.96509 -1.98254,0 -1.98254,0 0,3.96508 0,3.96508 1.98254,0 1.98254,0 0,1.98255 0,1.98253 -1.98254,0 -1.98254,0 0,-1.98253 z m 0,-11.89525 0,-1.98254 -1.98254,0 -1.98255,0 0,1.98254 0,1.98255 1.98255,0 1.98254,0 0,-1.98255 z m -3.96509,-7.93016 0,-1.98255 1.98255,0 1.98254,0 0,-2.31296 0,-2.31297 -7.93017,0 -7.93016,0 0,2.31297 0,2.31296 1.98253,0 1.98255,0 0,1.98255 0,1.98254 3.96508,0 3.96508,0 0,-1.98254 z m 3.96509,-12.5561 0,-1.98255 -3.96509,0 -3.96508,0 0,1.98255 0,1.98254 3.96508,0 3.96509,0 0,-1.98254 z m -95.82283,-27.75558 0,-13.87779 13.87779,0 13.87779,0 0,13.87779 0,13.87779 -13.87779,0 -13.87779,0 0,-13.87779 z m 23.7905,0 0,-9.91271 -9.91272,0 -9.9127,0 0,9.91271 0,9.91271 9.9127,0 9.91272,0 0,-9.91271 z m -15.86033,0 0,-5.94762 5.94762,0 5.94763,0 0,5.94762 0,5.94762 -5.94763,0 -5.94762,0 0,-5.94762 z m 64.10216,0 0,-13.87779 13.87779,0 13.87779,0 0,13.87779 0,13.87779 -13.87779,0 -13.87779,0 0,-13.87779 z m 23.7905,0 0,-9.91271 -9.91271,0 -9.91272,0 0,9.91271 0,9.91271 9.91272,0 9.91271,0 0,-9.91271 z m -15.86033,0 0,-5.94762 5.94762,0 5.94761,0 0,5.94762 0,5.94762 -5.94761,0 -5.94762,0 0,-5.94762 z"
         style="fill:#000000;fill-opacity:1;stroke:none" />
    </g>
    <g
       id="g3022"
       transform="matrix(0.83650429,0,0,-0.83650429,325.10603,587.62498)">
      <text
         transform="matrix(1,0,0,-1,-1.255799,2.876288)"
         id="text3024"
         style="fill:#ffffff;fill-opacity:1">
        <tspan
           style="font-size:13.82777882px;font-variant:normal;font-weight:normal;writing-mode:lr-tb;fill:#ffffff;fill-opacity:1;fill-rule:nonzero;stroke:none;font-family:DejaVu Sans;-inkscape-font-specification:DejaVuSans"
           x="0 8.7668123 14.187302 19.621618 28.38843 33.048393 37.708355 42.368317 46.18478 59.666866 68.433678 72.250145 76.080437 84.847252 93.641716 98.038956 106.80576 115.30985"
           y="0"
           sodipodi:role="line"
           id="tspan3026">http://imglib2.net</tspan>
      </text>
    </g>
  </g>
</svg>
