<?xml version="1.0" encoding="UTF-8" standalone="no"?>
<!-- Created with Inkscape (http://www.inkscape.org/) -->

<svg
   xmlns:dc="http://purl.org/dc/elements/1.1/"
   xmlns:cc="http://creativecommons.org/ns#"
   xmlns:rdf="http://www.w3.org/1999/02/22-rdf-syntax-ns#"
   xmlns:svg="http://www.w3.org/2000/svg"
   xmlns="http://www.w3.org/2000/svg"
   xmlns:sodipodi="http://sodipodi.sourceforge.net/DTD/sodipodi-0.dtd"
   xmlns:inkscape="http://www.inkscape.org/namespaces/inkscape"
   width="744.09448"
   height="1052.3622"
   id="svg2"
   version="1.1"
   inkscape:version="0.48.2 r9819"
   sodipodi:docname="imglib2-logo-poster.svg">
  <defs
     id="defs4">
    <clipPath
       id="clipPath3014"
       clipPathUnits="userSpaceOnUse">
      <path
         id="path3016"
         d="m 0,141.692 119.293,0 0,-119.293 -119.293,0 0,119.293 z" />
    </clipPath>
  </defs>
  <sodipodi:namedview
     id="base"
     pagecolor="#ffffff"
     bordercolor="#666666"
     borderopacity="1.0"
     inkscape:pageopacity="1"
     inkscape:pageshadow="2"
     inkscape:zoom="0.49497475"
     inkscape:cx="365.00962"
     inkscape:cy="108.69197"
     inkscape:document-units="px"
     inkscape:current-layer="layer1"
     showgrid="false"
     inkscape:snap-bbox="true"
     inkscape:bbox-paths="true"
     inkscape:bbox-nodes="true"
     inkscape:snap-bbox-edge-midpoints="true"
     inkscape:snap-nodes="true"
     inkscape:snap-global="false"
     fit-margin-top="20"
     fit-margin-left="20"
     fit-margin-right="15"
     fit-margin-bottom="15"
     inkscape:window-width="1920"
     inkscape:window-height="1176"
     inkscape:window-x="0"
     inkscape:window-y="24"
     inkscape:window-maximized="1" />
  <metadata
     id="metadata7">
    <rdf:RDF>
      <cc:Work
         rdf:about="">
        <dc:format>image/svg+xml</dc:format>
        <dc:type
           rdf:resource="http://purl.org/dc/dcmitype/StillImage" />
        <dc:title />
      </cc:Work>
    </rdf:RDF>
  </metadata>
  <g
     inkscape:label="Layer 1"
     inkscape:groupmode="layer"
     id="layer1"
     transform="translate(-55.54867,478.88723)">
    <g
       id="g2994"
       transform="translate(4,-60)">
      <rect
         transform="matrix(0.95129162,0.30829249,-0.38117977,0.92450094,0,0)"
         style="fill:#00ff00;fill-opacity:1;stroke:none"
         id="rect2987"
         width="226.07556"
         height="545.52808"
         x="370.19107"
         y="-481.13452" />
      <rect
         transform="matrix(1,0,-0.09775877,0.99521014,0,0)"
         y="-318.5191"
         x="136.74387"
         height="531.17609"
         width="232.59799"
         id="rect2985"
         style="fill:#000000;fill-opacity:1;stroke:none" />
      <text
         transform="matrix(1,0,0.13042563,1,0,0)"
         sodipodi:linespacing="125%"
         id="text2993"
         y="380.36954"
         x="78.609184"
         style="font-size:157.48881531px;font-style:normal;font-variant:normal;font-weight:bold;font-stretch:normal;line-height:125%;letter-spacing:0px;word-spacing:0px;fill:#000000;fill-opacity:1;stroke:none;font-family:Ubuntu;-inkscape-font-specification:Ubuntu Bold"
         xml:space="preserve"><tspan
           style="font-style:italic;-inkscape-font-specification:Ubuntu Bold Italic"
           y="380.36954"
           x="78.609184"
           id="tspan2995"
           sodipodi:role="line">ImgLib2</tspan></text>
    </g>
    <path
       style="fill:#000000;fill-opacity:1;stroke:none"
       d="m 611.32663,483.95473 0,-13.87779 13.87779,0 13.87779,0 0,13.87779 0,13.87779 -13.87779,0 -13.87779,0 0,-13.87779 z m 23.7905,0 0,-9.91271 -9.91272,0 -9.9127,0 0,9.91271 0,9.91271 9.9127,0 9.91272,0 0,-9.91271 z m -15.86033,0 0,-5.94763 5.94762,0 5.94763,0 0,5.94763 0,5.94762 -5.94763,0 -5.94762,0 0,-5.94762 z m 23.79049,9.91271 0,-3.96509 1.98254,0 1.98254,0 0,-1.98254 0,-1.98254 -1.98254,0 -1.98254,0 0,-3.96508 0,-3.96508 3.96508,0 3.96508,0 0,1.98254 0,1.98254 1.98255,0 1.98254,0 0,-3.96508 0,-3.96509 -1.98254,0 -1.98255,0 0,-1.98253 0,-1.98255 -3.96508,0 -3.96508,0 0,-1.98254 0,-1.98254 -5.94762,0 -5.94762,0 0,-3.96508 0,-3.96509 1.98254,0 1.98254,0 0,-1.98254 0,-1.98254 -1.98254,0 -1.98254,0 0,-1.98254 0,-1.98255 -1.98254,0 -1.98254,0 0,3.96508 0,3.96508 -1.98255,0 -1.98253,0 0,3.96509 0,3.96508 -3.96509,0 -3.96508,0 0,-3.96508 0,-3.96509 3.96508,0 3.96509,0 0,-3.96508 0,-3.96508 1.98253,0 1.98255,0 0,-2.31296 0,-2.31297 7.93016,0 7.93017,0 0,-1.98254 0,-1.98254 -3.96508,0 -3.96509,0 0,-1.98254 0,-1.98254 -1.98254,0 -1.98254,0 0,1.98254 0,1.98254 -1.98254,0 -1.98254,0 0,-1.98254 0,-1.98254 -1.98255,0 -1.98253,0 0,1.98254 0,1.98254 -3.96509,0 -3.96508,0 0,4.29551 0,4.29551 -1.98254,0 -1.98254,0 0,-6.27805 0,-6.27804 1.98254,0 1.98254,0 0,-1.98254 0,-1.98254 -1.98254,0 -1.98254,0 0,-1.98254 0,-1.98254 3.96508,0 3.96508,0 0,1.98254 0,1.98254 1.98255,0 1.98254,0 0,-1.98254 0,-1.98254 3.96508,0 3.96508,0 0,1.98254 0,1.98254 1.98254,0 1.98254,0 0,-1.98254 0,-1.98254 1.98254,0 1.98255,0 0,1.98254 0,1.98254 -1.98255,0 -1.98254,0 0,1.98254 0,1.98254 3.96509,0 3.96508,0 0,-1.98254 0,-1.98254 1.98254,0 1.98254,0 0,-1.98254 0,-1.98254 -1.98254,0 -1.98254,0 0,-3.96508 0,-3.96508 1.98254,0 1.98254,0 0,-1.98255 0,-1.98254 1.98255,0 1.98254,0 0,-3.96508 0,-3.96508 -1.98254,0 -1.98255,0 0,-1.98254 0,-1.98253 1.98255,0 1.98254,0 0,1.98253 0,1.98254 1.98255,0 1.98254,0 0,-3.96508 0,-3.96509 -5.94762,0 -5.94762,0 0,-1.98254 0,-1.98254 7.93016,0 7.93017,0 0,1.98254 0,1.98254 2.31296,0 2.31297,0 0,-1.98254 0,-1.98254 1.98253,0 1.98255,0 0,5.94762 0,5.94762 1.98254,0 1.98254,0 0,-1.98254 0,-1.98253 1.98254,0 1.98254,0 0,-1.98255 0,-1.98254 1.98254,0 1.98254,0 0,1.98254 0,1.98255 -1.98254,0 -1.98254,0 0,1.98253 0,1.98254 1.98254,0 1.98254,0 0,11.89525 0,11.89524 -1.98254,0 -1.98254,0 0,5.94762 0,5.94762 1.98254,0 1.98254,0 0,2.31296 0,2.31297 -1.98254,0 -1.98254,0 0,1.98254 0,1.98255 3.96508,0 3.96508,0 0,1.98254 0,1.98254 1.98255,0 1.98253,0 0,1.98255 0,1.98255 3.96509,0 3.96508,0 0,3.96508 0,3.96508 1.98253,0 1.98255,0 0,1.98255 0,1.98253 -1.98255,0 -1.98253,0 0,1.98255 0,1.98254 1.98253,0 1.98255,0 0,3.96508 0,3.96508 1.98254,0 1.98253,0 0,-1.98254 0,-1.98254 1.98255,0 1.98254,0 0,-1.98254 0,-1.98254 1.98254,0 1.98253,-10e-6 0,9.9127 0,9.91271 -1.98254,0 -1.98254,0 0,-1.98254 0,-1.98254 -3.96509,0 -3.96508,0 0,1.98254 0,1.98254 -1.98254,0 -1.98254,0 0,-1.98254 0,-1.98254 -3.96508,0 -3.96509,0 0,1.98254 0,1.98254 -1.98253,0 -1.98255,0 0,-1.98254 0,-1.98254 -1.98253,0 -1.98254,0 0,1.98254 0,1.98254 -1.98254,0 -1.98254,0 0,-1.98254 0,-1.98254 1.98254,0 1.98254,0 0,-5.94763 0,-5.94762 -3.96508,0 -3.96509,0 0,-1.98254 0,-1.98254 1.98254,0 1.98254,0 0,-3.96509 0,-3.96508 -1.98254,0 -1.98254,0 0,1.98255 0,1.98253 -1.98254,0 -1.98254,0 0,11.89525 0,11.89525 -8.26059,0 -8.26059,0 0,-3.96508 0,-3.96509 -1.98255,0 -1.98255,0 0,3.96509 0,3.96508 -1.98254,0 -1.98254,0 0,-3.96508 z m 44.27675,-3.96509 0,-3.96508 3.96509,0 3.96508,0 0,3.96508 0,3.96509 1.98254,0 1.98254,0 0,-3.96509 0,-3.96508 -1.98254,0 -1.98254,0 0,-1.98253 0,-1.98255 -3.96508,0 -3.96509,0 0,1.98255 0,1.98253 -1.98253,0 -1.98255,0 0,3.96508 0,3.96509 1.98255,0 1.98253,0 0,-3.96509 z m -32.3815,-1.98254 0,-1.98254 1.98254,0 1.98255,0 0,1.98254 0,1.98254 2.31296,0 2.31297,0 0,-1.98254 0,-1.98254 -2.31297,0 -2.31296,0 0,-1.98253 0,-1.98255 2.31296,0 2.31297,0 0,-3.96508 0,-3.96509 -2.31297,0 -2.31296,0 0,-1.98253 0,-1.98255 6.27805,0 6.27804,0 0,-3.96508 0,-3.96508 -3.96508,0 -3.96508,0 0,1.98254 0,1.98254 -2.31297,0 -2.31296,0 0,1.98254 0,1.98254 -1.98255,0 -1.98254,0 0,-1.98254 0,-1.98254 -1.98254,0 -1.98255,0 0,1.98254 0,1.98254 1.98255,0 1.98254,0 0,1.98255 0,1.98253 1.98254,0 1.98255,0 0,3.96509 0,3.96508 -1.98255,0 -1.98254,0 0,1.98255 0,1.98253 -1.98254,0 -1.98255,0 0,1.98254 0,1.98254 1.98255,0 1.98254,0 0,-1.98254 z m 36.34659,-15.86033 0,-5.94762 -5.94762,0 -5.94762,0 0,5.94762 0,5.94762 5.94762,0 5.94762,0 0,-5.94762 z m -7.93017,0 0,-1.98254 1.98255,0 1.98253,0 0,1.98254 0,1.98254 -1.98253,0 -1.98255,0 0,-1.98254 z m -36.34659,-7.93016 0,-1.98255 5.94763,0 5.94762,0 0,-1.98254 0,-1.98255 4.29551,0 4.29551,0 0,-1.98255 0,-1.98253 1.98254,0 1.98254,0 0,-1.98255 0,-1.98255 1.98254,0 1.98254,0 0,-2.31296 0,-2.31296 -1.98254,0 -1.98254,0 0,2.31296 0,2.31296 -3.96508,0 -3.96508,0 0,-2.31296 0,-2.31296 1.98253,0 1.98255,0 0,-5.94762 0,-5.94762 -4.29551,0 -4.29551,0 0,-5.94762 0,-5.94762 2.31296,0 2.31297,0 0,3.96508 0,3.96509 1.98253,0 1.98255,0 0,-3.96509 0,-3.96508 -1.98255,0 -1.98253,0 0,-1.98255 0,-1.98253 -2.31297,0 -2.31296,0 0,1.98253 0,1.98255 -1.98255,0 -1.98254,0 0,-1.98255 0,-1.98253 -1.98254,0 -1.98255,0 0,1.98253 0,1.98255 -1.98254,0 -1.98255,0 0,1.98254 0,1.98254 1.98255,0 1.98254,0 0,3.96509 0,3.96508 -1.98254,0 -1.98255,0 0,1.98253 0,1.98254 1.98255,0 1.98254,0 0,1.98255 0,1.98253 -1.98254,0 -1.98255,0 0,1.98255 0,1.98254 3.96508,0 3.96509,0 0,6.27804 0,6.27805 -3.96509,0 -3.96508,0 0,-1.98255 0,-1.98253 1.98255,0 1.98254,0 0,-1.98255 0,-1.98255 -3.96508,0 -3.96508,0 0,3.96509 0,3.96508 1.98254,0 1.98254,0 0,1.98255 0,1.98254 -1.98254,0 -1.98254,0 0,1.98255 0,1.98253 1.98254,0 1.98254,0 0,-1.98253 z m 11.89525,-11.89525 0,-1.98255 2.31296,0 2.31297,0 0,1.98255 0,1.98255 -2.31297,0 -2.31296,0 0,-1.98255 z m 0,-12.55609 0,-1.98255 2.31296,0 2.31297,0 0,1.98255 0,1.98253 -2.31297,0 -2.31296,0 0,-1.98253 z m -7.93017,-3.96509 0,-1.98253 1.98255,0 1.98254,0 0,1.98253 0,1.98254 -1.98254,0 -1.98255,0 0,-1.98254 z m 0,-11.89524 0,-1.98254 1.98255,0 1.98254,0 0,1.98254 0,1.98254 -1.98254,0 -1.98255,0 0,-1.98254 z m -11.89524,36.34659 0,-1.98255 -1.98255,0 -1.98253,0 0,1.98255 0,1.98254 1.98253,0 1.98255,0 0,-1.98254 z m 44.27675,0 0,-1.98255 -1.98253,0 -1.98254,0 0,1.98255 0,1.98254 1.98254,0 1.98253,0 0,-1.98254 z m -44.27675,-7.93017 0,-1.98254 -1.98255,0 -1.98253,0 0,1.98254 0,1.98255 1.98253,0 1.98255,0 0,-1.98255 z m 36.34659,-20.48626 0,-1.98254 -1.98254,0 -1.98253,0 0,1.98254 0,1.98255 1.98253,0 1.98254,0 0,-1.98255 z m 0,-13.87779 0,-7.93016 -1.98254,0 -1.98253,0 0,7.93016 0,7.93017 1.98253,0 1.98254,0 0,-7.93017 z m -7.93017,-5.94762 0,-1.98254 -1.98254,0 -1.98254,0 0,-1.98254 0,-1.98253 -2.31296,0 -2.31297,0 0,3.96508 0,3.96508 4.29551,0 4.29551,0 0,-1.98254 z m 3.96509,75.99742 0,-1.98254 1.98253,0 1.98254,0 0,1.98254 0,1.98254 -1.98254,0 -1.98253,0 0,-1.98254 z m 35.68574,-15.86033 0,-1.98255 -1.98254,0 -1.98255,0 0,-1.98254 0,-1.98254 -1.98253,0 -1.98254,0 0,-3.96508 0,-3.96509 -1.98254,0 -1.98254,0 0,-1.98254 0,-1.98254 -1.98255,0 -1.98253,0 0,-1.98254 0,-1.98255 -3.96509,0 -3.96508,0 0,-2.31296 0,-2.31297 1.98255,0 1.98253,0 0,-1.98254 0,-1.98254 -1.98253,0 -1.98255,0 0,-1.98254 0,-1.98254 1.98255,0 1.98253,0 0,-1.98254 0,-1.98254 -1.98253,0 -1.98255,0 0,-1.98254 0,-1.98254 1.98255,0 1.98253,0 0,1.98254 0,1.98254 9.91272,0 9.91271,0 0,-1.98254 0,-1.98254 1.98254,0 1.98254,0 0,1.98254 0,1.98254 -1.98254,0 -1.98254,0 0,1.98254 0,1.98254 1.98254,0 1.98254,0 0,6.27804 0,6.27805 -1.98254,0 -1.98254,0 0,1.98255 0,1.98254 1.98254,0 1.98254,0 0,3.96508 0,3.96509 -1.98254,0 -1.98254,0 0,3.96508 0,3.96508 1.98254,0 1.98254,0 0,1.98255 0,1.98253 -1.98254,0 -1.98254,0 0,-1.98253 z m 0,-11.89525 0,-1.98254 -1.98254,0 -1.98255,0 0,1.98254 0,1.98255 1.98255,0 1.98254,0 0,-1.98255 z m -3.96509,-7.93016 0,-1.98255 1.98255,0 1.98254,0 0,-2.31296 0,-2.31297 -7.93017,0 -7.93016,0 0,2.31297 0,2.31296 1.98253,0 1.98255,0 0,1.98255 0,1.98254 3.96508,0 3.96508,0 0,-1.98254 z m 3.96509,-12.5561 0,-1.98255 -3.96509,0 -3.96508,0 0,1.98255 0,1.98254 3.96508,0 3.96509,0 0,-1.98254 z m -95.82283,-27.75558 0,-13.87779 13.87779,0 13.87779,0 0,13.87779 0,13.87779 -13.87779,0 -13.87779,0 0,-13.87779 z m 23.7905,0 0,-9.91271 -9.91272,0 -9.9127,0 0,9.91271 0,9.91271 9.9127,0 9.91272,0 0,-9.91271 z m -15.86033,0 0,-5.94762 5.94762,0 5.94763,0 0,5.94762 0,5.94762 -5.94763,0 -5.94762,0 0,-5.94762 z m 64.10216,0 0,-13.87779 13.87779,0 13.87779,0 0,13.87779 0,13.87779 -13.87779,0 -13.87779,0 0,-13.87779 z m 23.7905,0 0,-9.91271 -9.91271,0 -9.91272,0 0,9.91271 0,9.91271 9.91272,0 9.91271,0 0,-9.91271 z m -15.86033,0 0,-5.94762 5.94762,0 5.94761,0 0,5.94762 0,5.94762 -5.94761,0 -5.94762,0 0,-5.94762 z"
       id="path3063"
       inkscape:connector-curvature="0" />
    <g
       id="g3022"
       transform="matrix(0.83650429,0,0,-0.83650429,611.32663,516.5702)">
      <text
         transform="matrix(1,0,0,-1,-1.255799,2.876288)"
         id="text3024">
        <tspan
           style="font-size:13.82777882px;font-variant:normal;font-weight:normal;writing-mode:lr-tb;fill:#000000;fill-opacity:1;fill-rule:nonzero;stroke:none;font-family:DejaVu Sans;-inkscape-font-specification:DejaVuSans"
           x="0 8.7668123 14.187302 19.621618 28.38843 33.048393 37.708355 42.368317 46.18478 59.666866 68.433678 72.250145 76.080437 84.847252 93.641716 98.038956 106.80576 115.30985"
           y="0"
           sodipodi:role="line"
           id="tspan3026">http://imglib2.net</tspan>
      </text>
    </g>
  </g>
</svg>
